<svg width="20" height="20" viewBox="0 0 20 20" fill="none" xmlns="http://www.w3.org/2000/svg">
<rect x="1.17383" y="2.78149" width="17.2994" height="16.2182" rx="3" stroke="#15171E" stroke-width="1.4"/>
<path d="M14.1484 1L14.1484 4.40605C14.1484 5.34886 14.1484 5.82027 13.8555 6.11316C13.5627 6.40605 13.0912 6.40605 12.1484 6.40605L7.49874 6.40606C6.55593 6.40606 6.08453 6.40606 5.79164 6.11316C5.49874 5.82027 5.49874 5.34887 5.49874 4.40606L5.49874 1" stroke="#15171E" stroke-width="1.4" stroke-linecap="round"/>
<rect x="5.22852" y="9.80957" width="1.62182" height="1.62182" rx="0.5" fill="#15171E"/>
<rect x="5.22852" y="13.594" width="1.62182" height="1.62182" rx="0.5" fill="#15171E"/>
<rect x="9.01367" y="9.80957" width="1.62182" height="1.62182" rx="0.5" fill="#15171E"/>
<rect x="9.01367" y="13.594" width="1.62182" height="1.62182" rx="0.5" fill="#15171E"/>
<rect x="12.7969" y="9.80957" width="1.62182" height="1.62182" rx="0.5" fill="#15171E"/>
<rect x="12.7969" y="13.594" width="1.62182" height="1.62182" rx="0.5" fill="#15171E"/>
</svg>
