<svg width="21" height="20" viewBox="0 0 21 20" fill="none" xmlns="http://www.w3.org/2000/svg">
<path d="M9.40408 2.5489H4.23454C2.5215 2.5489 1.13281 3.93754 1.13281 5.65052V15.9894C1.13281 17.7024 2.5215 19.091 4.23454 19.091H14.5736C16.2867 19.091 17.6753 17.7024 17.6753 15.9894L17.6753 13.4047V10.8199M6.30235 13.9215L10.064 13.1636C10.2637 13.1234 10.4471 13.025 10.5911 12.8809L19.012 4.45569C19.4157 4.05175 19.4155 3.39697 19.0114 2.99336L17.2275 1.21158C16.8236 0.80814 16.1692 0.808414 15.7656 1.2122L7.34381 9.63832C7.20009 9.78212 7.10195 9.9651 7.06167 10.1644L6.30235 13.9215Z" stroke="#15171E" stroke-width="1.2" stroke-linecap="round" stroke-linejoin="round"/>
</svg>
