<svg width="21" height="20" viewBox="0 0 21 20" fill="none" xmlns="http://www.w3.org/2000/svg">
<path d="M18.6586 8.875L17.0273 7.24488V3.25C17.0273 2.63125 16.5211 2.125 15.9023 2.125H14.7773C14.1586 2.125 13.6523 2.63125 13.6523 3.25V3.87212L11.4023 1.62438C11.0952 1.33413 10.814 1 10.2773 1C9.74072 1 9.45947 1.33413 9.15234 1.62438L1.89609 8.875C1.54509 9.24062 1.27734 9.50725 1.27734 10C1.27734 10.6334 1.76334 11.125 2.40234 11.125H3.52734V17.875C3.52734 18.4938 4.03359 19 4.65234 19H6.90234C7.52366 19 8.02734 18.4963 8.02734 17.875V13.375C8.02734 12.7562 8.53359 12.25 9.15234 12.25H11.4023C12.0211 12.25 12.5273 12.7562 12.5273 13.375V17.875C12.5273 18.4963 12.4685 19 13.0898 19H15.9023C16.5211 19 17.0273 18.4938 17.0273 17.875V11.125H18.1523C18.7913 11.125 19.2773 10.6334 19.2773 10C19.2773 9.50725 19.0096 9.24062 18.6586 8.875Z" stroke="#15171E" stroke-width="1.2" stroke-linejoin="round"/>
</svg>
