<svg width="22" height="20" viewBox="0 0 22 20" fill="none" xmlns="http://www.w3.org/2000/svg">
<path d="M10.3961 1.29429C10.5898 0.901903 11.1493 0.901903 11.343 1.29429L13.8498 6.37378C13.9267 6.5296 14.0754 6.6376 14.2473 6.66259L19.8529 7.47712C20.2859 7.54004 20.4588 8.07219 20.1455 8.37762L16.0893 12.3315C15.9648 12.4527 15.9081 12.6275 15.9374 12.7987L16.895 18.3816C16.969 18.8129 16.5163 19.1418 16.129 18.9382L11.1152 16.3023C10.9614 16.2214 10.7777 16.2214 10.6239 16.3023L5.61012 18.9382C5.22281 19.1418 4.77014 18.8129 4.84411 18.3816L5.80165 12.7987C5.83102 12.6275 5.77424 12.4527 5.64982 12.3315L1.5936 8.37762C1.28026 8.07219 1.45317 7.54004 1.88619 7.47712L7.49174 6.66259C7.6637 6.6376 7.81235 6.5296 7.88925 6.37378L10.3961 1.29429Z" stroke="#15171E" stroke-width="1.2" stroke-linejoin="round"/>
</svg>
