<svg width="21" height="20" viewBox="0 0 21 20" fill="none" xmlns="http://www.w3.org/2000/svg">
<path d="M5.19531 19V12.8125C5.19531 12.1912 5.69899 11.6875 6.32031 11.6875H14.1953C14.8166 11.6875 15.3203 12.1912 15.3203 12.8125V19M15.3203 1.5625V4.375C15.3203 4.99632 14.8166 5.5 14.1953 5.5L6.32031 5.5C5.69899 5.5 5.19531 4.99632 5.19531 4.375L5.19531 1M18.6929 4.93513L15.3227 1.56487C14.961 1.20319 14.4705 1 13.959 1H3.18638C2.12125 1 1.25781 1.86344 1.25781 2.92857V17.0714C1.25781 18.1366 2.12125 19 3.18638 19H17.3292C18.3944 19 19.2578 18.1366 19.2578 17.0714V6.29883C19.2578 5.78734 19.0546 5.2968 18.6929 4.93513Z" stroke="#15171E" stroke-width="1.2" stroke-linecap="round"/>
</svg>
