<svg width="17" height="20" viewBox="0 0 17 20" fill="none" xmlns="http://www.w3.org/2000/svg">
<path d="M7.57212 18.3866C7.93728 18.7416 8.50803 18.7416 8.87319 18.3866C10.6096 16.6985 15.2227 11.8551 15.2227 8.04323C15.2227 4.15323 12.0886 0.999756 8.22266 0.999756C4.35666 0.999756 1.22266 4.15323 1.22266 8.04323C1.22266 11.8551 5.83569 16.6985 7.57212 18.3866Z" stroke="#15171E" stroke-width="1.2"/>
<path d="M10.4591 7.7499C10.4591 8.99254 9.45791 9.9999 8.22294 9.9999C6.98797 9.9999 5.98683 8.99254 5.98683 7.7499C5.98683 6.50726 6.98797 5.4999 8.22294 5.4999C9.45791 5.4999 10.4591 6.50726 10.4591 7.7499Z" stroke="#15171E" stroke-width="1.2"/>
</svg>
