<svg width="21" height="6" viewBox="0 0 21 6" fill="none" xmlns="http://www.w3.org/2000/svg">
<path d="M15.5 3C15.5 2.33696 15.7634 1.70107 16.2322 1.23223C16.7011 0.763392 17.337 0.5 18 0.5C18.663 0.5 19.2989 0.763393 19.7678 1.23223C20.2366 1.70107 20.5 2.33696 20.5 3C20.5 3.66304 20.2366 4.29893 19.7678 4.76777C19.2989 5.23661 18.663 5.5 18 5.5C17.337 5.5 16.7011 5.23661 16.2322 4.76777C15.7634 4.29893 15.5 3.66304 15.5 3ZM8 3C8 2.33696 8.26339 1.70107 8.73223 1.23223C9.20107 0.763392 9.83696 0.5 10.5 0.5C11.163 0.5 11.7989 0.763392 12.2678 1.23223C12.7366 1.70107 13 2.33696 13 3C13 3.66304 12.7366 4.29893 12.2678 4.76777C11.7989 5.23661 11.163 5.5 10.5 5.5C9.83696 5.5 9.20107 5.23661 8.73223 4.76777C8.26339 4.29893 8 3.66304 8 3ZM0.5 3C0.5 2.33696 0.763393 1.70107 1.23223 1.23223C1.70107 0.763392 2.33696 0.499999 3 0.499999C3.66304 0.499999 4.29893 0.763392 4.76777 1.23223C5.23661 1.70107 5.5 2.33696 5.5 3C5.5 3.66304 5.23661 4.29892 4.76777 4.76777C4.29893 5.23661 3.66304 5.5 3 5.5C2.33696 5.5 1.70107 5.23661 1.23223 4.76777C0.763393 4.29892 0.5 3.66304 0.5 3Z" fill="#15171E"/>
</svg>
